<?xml version="1.0" standalone="no"?>
<!DOCTYPE svg PUBLIC "-//W3C//DTD SVG 20010904//EN"
 "http://www.w3.org/TR/2001/REC-SVG-20010904/DTD/svg10.dtd">
<svg version="1.0" xmlns="http://www.w3.org/2000/svg"
 width="512.000000pt" height="512.000000pt" viewBox="0 0 512.000000 512.000000"
 preserveAspectRatio="xMidYMid meet">
<metadata>
Created by potrace 1.14, written by Peter Selinger 2001-2017
</metadata>
<g transform="translate(0.000000,512.000000) scale(0.100000,-0.100000)"
fill="#000000" stroke="none">
<path d="M2949 4958 c-90 -72 -225 -183 -299 -246 -167 -142 -543 -517 -634
-632 -209 -263 -338 -517 -382 -747 -21 -115 -21 -311 1 -428 43 -232 175
-521 373 -815 l117 -175 520 0 520 0 81 160 c155 307 204 534 183 848 -16 247
-101 639 -178 820 -93 218 -149 411 -171 591 -17 128 -8 392 19 595 12 85 19
156 18 158 -2 1 -77 -57 -168 -129z m87 -151 c-27 -177 -36 -273 -37 -380 0
-97 5 -122 75 -398 41 -162 85 -348 97 -414 24 -133 28 -275 10 -319 l-12 -29
-46 44 c-151 145 -250 342 -324 646 -12 48 -25 91 -28 95 -8 10 -183 -182
-249 -273 -61 -84 -112 -182 -148 -283 -28 -79 -28 -79 -46 -56 -30 37 -43
100 -43 208 1 56 0 102 -1 102 -1 0 -34 -14 -74 -31 -102 -43 -194 -100 -291
-181 l-84 -70 -3 69 c-5 97 12 163 73 288 91 185 266 396 506 611 245 219 631
514 637 487 2 -7 -3 -60 -12 -116z"/>
<path d="M2175 1708 c-3 -7 -95 -370 -206 -807 -110 -436 -203 -800 -206 -807
-4 -12 128 -14 846 -14 468 0 851 3 851 8 -1 4 -85 372 -188 817 l-187 810
-453 3 c-357 2 -454 0 -457 -10z"/>
</g>
</svg>
